<?xml version="1.0" standalone="no"?>
<!DOCTYPE svg PUBLIC "-//W3C//DTD SVG 20010904//EN"
 "http://www.w3.org/TR/2001/REC-SVG-20010904/DTD/svg10.dtd">
<svg version="1.0" xmlns="http://www.w3.org/2000/svg"
 width="1016.000000pt" height="1016.000000pt" viewBox="0 0 1016.000000 1016.000000"
 preserveAspectRatio="xMidYMid meet">
<metadata>
Created by potrace 1.14, written by Peter Selinger 2001-2017
</metadata>
<g transform="translate(0.000000,1016.000000) scale(0.100000,-0.100000)"
fill="#000000" stroke="none">
<path d="M5498 8093 c-9 -3 -19 -12 -22 -21 -6 -19 -14 -529 -21 -1277 -13
-1465 -20 -1857 -34 -1882 -11 -21 -22 -177 -25 -335 -1 -91 -2 -92 -29 -99
-15 -4 -27 -7 -28 -6 -3 5 -7 291 -13 767 -14 1163 -22 1671 -30 1910 -4 114
-3 110 -28 119 -53 20 -66 -16 -73 -199 -2 -74 -7 -202 -10 -285 -3 -82 -7
-199 -10 -260 -2 -60 -7 -173 -10 -250 -3 -77 -8 -178 -10 -225 -4 -79 -9
-248 -20 -665 -3 -93 -7 -312 -11 -485 -3 -173 -7 -371 -9 -440 -2 -69 -4
-181 -5 -250 -2 -109 -4 -126 -21 -138 -10 -7 -19 -22 -19 -34 0 -14 -5 -18
-16 -14 -9 3 -24 6 -35 6 -12 0 -19 7 -19 18 0 26 -20 42 -51 42 -29 0 -38 -8
-44 -39 -6 -33 -16 -185 -30 -495 -4 -76 -9 -146 -10 -155 -2 -9 -4 -24 -4
-33 -1 -10 -8 -18 -16 -18 -18 0 -46 -40 -48 -69 -3 -43 -17 -19 -18 32 -1 50
-3 88 -13 192 -4 45 -17 66 -46 77 -4 2 -10 29 -13 61 -5 59 -27 92 -54 82 -8
-3 -14 5 -15 20 -1 14 -2 37 -4 53 -1 15 -4 92 -8 172 -6 138 -10 269 -21 730
-8 349 -16 400 -60 400 -34 0 -45 -30 -46 -128 0 -53 -2 -137 -4 -185 -2 -49
-6 -262 -10 -475 -12 -768 -14 -855 -20 -860 -3 -3 -10 -1 -15 4 -11 11 -16
89 -25 349 -10 328 -17 430 -27 442 -12 15 -54 17 -63 3 -17 -28 -32 -274 -34
-584 -1 -116 -14 -64 -18 72 -3 113 -6 129 -24 144 -16 13 -26 15 -40 8 -33
-18 -39 -68 -42 -342 -1 -56 -11 -75 -23 -43 -7 18 -60 20 -67 3 -6 -14 -6 -3
-12 407 -5 336 -16 963 -19 1096 -1 52 -6 101 -10 107 -10 16 -51 15 -64 -1
-13 -15 -22 -218 -27 -617 -20 -1633 -20 -1608 -28 -1617 -4 -3 -7 1 -7 9 0 9
-11 25 -24 35 -19 14 -25 30 -29 77 -7 74 -32 106 -71 88 -16 -7 -26 -21 -28
-38 -4 -36 -42 -43 -68 -12 -15 20 -21 21 -44 10 -14 -6 -26 -7 -26 -2 0 5 -9
18 -20 28 -23 21 -24 31 -35 257 -7 142 -18 175 -60 175 -29 0 -40 -20 -44
-75 -2 -22 -9 -44 -17 -48 -30 -17 -33 -36 -49 -312 -2 -33 -4 -72 -4 -86 -1
-22 -6 -26 -30 -26 -20 0 -29 5 -29 16 0 9 -3 54 -6 101 -4 47 -9 110 -11 140
-2 30 -7 91 -10 134 -7 98 -21 130 -58 134 -34 4 -42 -15 -51 -123 -19 -227
-17 -216 -35 -260 -7 -16 -13 -40 -13 -52 0 -13 -4 -23 -8 -23 -4 0 -8 39 -10
88 -1 48 -3 112 -5 142 -9 159 -22 654 -30 1175 -4 215 -8 442 -10 505 -2 63
-4 186 -6 273 -1 122 -5 162 -16 173 -36 36 -69 5 -77 -73 -6 -58 -12 -303
-21 -928 -3 -187 -7 -477 -11 -645 -3 -168 -6 -355 -7 -417 -1 -61 -5 -115
-10 -119 -4 -4 -7 0 -7 10 0 9 -10 21 -22 26 -18 7 -28 4 -45 -16 -13 -14 -24
-36 -24 -50 -1 -13 -3 -28 -4 -34 -1 -5 -3 -26 -4 -46 0 -20 -5 -33 -11 -29
-5 3 -19 1 -30 -5 -18 -9 -20 -8 -20 14 0 14 -11 37 -24 52 -23 27 -24 28 -50
11 -14 -10 -25 -21 -25 -25 1 -4 1 -23 0 -43 -1 -37 -22 -54 -59 -49 -22 2
-41 -20 -48 -56 -5 -27 -11 -34 -29 -34 -30 0 -52 -27 -60 -75 -11 -71 -15
-85 -25 -85 -9 0 -17 21 -24 61 -6 37 -19 58 -37 64 -10 4 -20 12 -20 18 -1 7
-2 17 -3 22 -4 20 -20 130 -20 138 -1 4 -11 19 -24 32 -33 34 -63 21 -77 -33
-5 -23 -20 -49 -32 -57 -13 -9 -23 -23 -23 -31 0 -8 -4 -14 -10 -14 -5 0 -10
12 -10 28 0 38 -12 53 -45 56 -24 3 -29 8 -31 32 -7 97 -24 127 -65 117 -21
-6 -23 -9 -33 -56 -4 -15 -12 -27 -19 -26 -50 6 -67 -16 -74 -100 -3 -31 -7
-58 -9 -60 -2 -2 -13 8 -25 22 -28 37 -55 34 -80 -8 -25 -43 -47 -45 -60 -6
-11 32 -40 45 -62 27 -19 -14 -36 -72 -35 -116 0 -19 0 -72 -1 -117 l-1 -82
-25 25 c-14 14 -25 33 -25 42 -1 33 -25 71 -64 101 -43 35 -58 38 -79 16 -13
-13 -16 -13 -27 0 -7 8 -21 15 -31 15 -11 0 -23 10 -29 24 -5 14 -19 26 -31
28 -12 2 -26 11 -30 21 -5 9 -13 25 -18 35 -4 9 -17 18 -29 20 -31 5 -59 -45
-61 -112 -1 -13 -6 -17 -21 -13 -10 3 -27 -1 -37 -8 -15 -11 -19 -10 -30 5
-14 20 -51 19 -64 -1 -4 -8 -11 1 -17 22 -12 43 -53 89 -79 89 -11 0 -28 -9
-38 -20 -24 -26 -29 -25 -44 6 -8 19 -18 25 -39 24 -15 -1 -29 -1 -32 0 -23 8
-41 5 -54 -8 -15 -17 -16 -21 -16 -47 0 -9 -9 -15 -25 -15 -26 0 -45 -25 -45
-61 0 -41 -10 -13 -16 47 -9 86 -25 129 -49 132 -35 4 -51 -15 -54 -66 -1 -6
-4 -11 -8 -11 -30 5 -63 -37 -63 -80 0 -10 -6 -21 -12 -24 -19 -6 -37 87 -31
151 4 48 3 52 -16 52 -12 0 -22 -3 -22 -7 -1 -5 -2 -88 -3 -187 -1 -193 4
-216 49 -216 29 0 51 30 60 82 7 35 7 36 26 17 13 -13 27 -17 48 -13 34 7 38
2 51 -67 6 -28 15 -58 21 -66 18 -21 48 -15 61 12 8 18 17 24 30 19 29 -9 46
12 53 69 7 48 23 95 26 72 1 -12 7 -82 13 -149 3 -33 10 -54 22 -63 49 -35 67
-5 79 132 11 123 14 147 20 153 10 10 13 -4 19 -85 6 -80 20 -170 27 -178 14
-13 58 -15 70 -2 11 12 15 11 29 -5 19 -22 53 -15 69 15 9 19 18 57 20 93 1 7
10 14 21 17 11 3 26 19 33 36 l13 30 11 -29 c7 -20 18 -30 32 -30 11 0 28 -11
37 -25 9 -14 25 -25 35 -25 12 0 21 -9 25 -28 12 -57 23 -72 51 -72 16 0 33 4
40 8 9 6 23 62 29 125 4 41 6 39 20 -22 7 -36 19 -68 26 -72 6 -4 13 -16 15
-26 4 -25 11 -265 19 -653 3 -179 7 -341 8 -360 l1 -35 58 -3 57 -3 1 58 c0
32 2 144 4 248 2 105 6 329 9 500 5 297 6 310 26 325 13 10 25 37 33 78 7 35
16 63 20 62 29 -1 38 3 50 26 l14 26 12 -30 c13 -31 46 -47 75 -36 12 5 16 0
16 -21 0 -14 5 -35 10 -46 13 -23 58 -26 66 -4 5 12 9 12 29 -1 13 -9 34 -14
47 -12 21 3 23 -2 33 -62 12 -78 19 -90 50 -90 37 0 53 42 61 166 4 60 7 115
7 121 0 7 8 20 18 29 17 16 19 15 25 -2 4 -11 18 -28 30 -39 17 -14 26 -38 33
-82 14 -89 30 -117 66 -121 25 -2 33 3 49 33 20 37 46 47 46 17 0 -25 19 -42
47 -42 33 0 45 35 58 164 5 52 15 75 15 35 0 -28 36 -73 51 -63 5 3 17 -3 27
-14 9 -11 27 -23 39 -27 28 -8 51 25 55 78 2 33 5 37 30 37 34 0 58 40 58 96
0 46 8 41 14 -9 7 -57 15 -74 37 -80 21 -6 58 23 60 46 0 6 2 19 4 28 1 8 6
103 10 210 7 198 14 257 16 133 1 -38 2 -89 4 -114 1 -25 5 -112 9 -195 14
-300 19 -319 71 -313 15 2 25 18 37 57 10 29 22 58 27 65 12 14 19 49 27 146
4 41 8 84 10 95 1 11 3 31 3 44 1 13 3 22 5 20 5 -4 10 -41 22 -149 10 -98 16
-126 30 -147 16 -25 43 -30 62 -11 8 8 16 6 30 -12 25 -31 67 -22 77 17 12 50
22 178 24 312 1 79 14 54 18 -35 4 -77 23 -134 46 -134 7 0 18 -9 25 -20 14
-22 42 -26 60 -8 7 7 12 10 13 8 0 -3 3 -25 5 -50 5 -50 32 -81 63 -73 11 3
21 -2 24 -11 9 -23 53 -20 70 4 18 25 45 17 44 -13 -1 -28 12 -206 18 -232 2
-11 4 -23 4 -27 1 -4 10 -12 21 -18 30 -16 56 3 65 47 4 21 15 46 26 56 15 14
19 32 20 85 0 58 4 161 8 242 1 19 4 21 13 12 26 -26 67 -2 73 43 3 17 6 40 8
52 6 42 17 37 18 -8 1 -24 3 -57 4 -74 2 -16 6 -61 9 -100 3 -50 9 -73 22 -82
24 -17 31 -16 54 7 11 11 22 15 25 10 9 -15 41 -12 56 6 7 9 14 37 15 62 1 26
5 141 9 257 9 245 7 225 25 252 15 20 16 20 36 4 22 -17 24 -31 39 -221 18
-217 20 -227 46 -235 22 -7 54 8 62 30 6 15 15 244 22 563 2 101 6 186 9 190
3 3 6 -5 6 -17 0 -35 27 -91 44 -91 9 0 17 -8 18 -17 0 -10 2 -22 3 -28 2 -5
3 -32 4 -58 1 -38 6 -53 28 -73 24 -22 27 -34 30 -97 6 -107 21 -190 36 -199
8 -4 20 -21 27 -38 10 -23 19 -30 41 -30 35 0 49 23 56 96 4 41 10 54 22 54
51 1 57 29 75 324 1 14 9 19 34 20 30 1 32 -1 32 -31 0 -29 21 -63 40 -63 20
0 49 38 54 70 5 37 18 227 20 298 1 27 7 48 17 55 9 7 19 21 22 32 12 39 19
233 32 860 16 771 22 995 28 1002 3 2 5 -101 6 -229 6 -881 33 -2125 47 -2170
6 -20 34 -31 57 -22 21 8 35 65 36 157 1 43 3 47 25 47 36 0 44 17 50 120 7
94 9 168 21 720 9 407 10 418 18 426 4 4 7 -46 7 -112 1 -288 11 -1480 14
-1803 3 -207 8 -357 14 -363 5 -5 22 -8 38 -6 20 2 30 10 35 28 4 15 7 -8 8
-58 1 -46 6 -92 11 -103 16 -28 58 -25 70 5 13 35 26 356 29 699 1 61 4 77 16
77 8 0 18 8 24 18 12 23 20 197 27 617 3 193 8 352 10 354 7 8 34 10 35 3 2
-12 7 -159 13 -427 6 -267 12 -399 22 -495 15 -160 22 -180 59 -180 l25 0 1
-142 c1 -278 7 -323 40 -333 42 -14 59 3 60 58 1 29 2 75 4 102 1 28 4 103 6
168 2 64 7 117 11 117 4 0 8 -15 9 -32 1 -18 2 -44 4 -58 2 -14 6 -63 9 -110
3 -47 8 -112 11 -145 2 -33 7 -94 10 -135 7 -95 11 -109 39 -116 18 -4 22 -12
23 -47 1 -92 14 -313 19 -329 8 -26 42 -33 64 -13 20 18 28 66 33 199 2 75 4
79 27 83 30 4 39 19 41 63 0 19 2 42 4 50 4 25 27 454 29 547 0 26 3 30 16 23
11 -6 17 -26 19 -62 9 -166 18 -238 33 -255 12 -15 54 -17 63 -3 15 24 28 304
36 760 1 63 4 105 6 92 5 -25 37 -46 59 -38 10 4 14 -3 15 -27 2 -71 10 -213
14 -232 2 -11 4 -35 4 -53 1 -21 10 -41 25 -55 17 -16 26 -38 31 -77 11 -94
25 -142 45 -159 13 -11 21 -35 25 -81 9 -84 30 -130 60 -130 26 0 40 14 49 53
4 15 11 25 15 22 5 -3 20 -1 34 4 17 7 26 20 31 46 4 20 11 33 17 29 5 -3 16
-1 23 5 9 8 18 5 34 -10 12 -11 22 -23 22 -27 1 -43 33 -239 41 -249 20 -23
56 -16 67 15 7 18 11 22 14 12 6 -17 26 -91 36 -135 5 -17 19 -36 35 -45 24
-13 28 -13 42 1 8 8 17 26 20 39 5 25 16 279 19 419 1 56 6 86 14 89 8 2 12
-9 13 -35 1 -21 2 -56 4 -78 1 -22 6 -90 10 -152 11 -194 14 -212 27 -240 15
-31 49 -41 66 -21 12 16 19 65 28 198 4 71 10 97 22 106 10 7 18 12 18 11 1
-1 4 -23 7 -48 3 -25 12 -68 21 -95 8 -27 17 -66 21 -86 11 -72 75 -72 95 0 5
20 10 42 10 49 0 6 10 13 22 15 44 6 54 60 60 326 2 90 5 110 15 100 7 -7 15
-31 18 -53 3 -22 12 -60 20 -85 7 -25 16 -99 20 -165 11 -227 17 -255 55 -255
28 0 51 35 55 82 6 77 18 283 17 301 0 9 3 17 9 17 5 0 9 -7 9 -15 0 -9 11
-27 25 -41 20 -20 28 -23 45 -14 11 6 20 17 20 25 0 23 20 28 40 10 11 -10 26
-15 35 -12 10 4 15 0 16 -11 2 -43 11 -68 30 -84 19 -16 22 -16 45 -2 13 9 24
19 25 23 0 3 2 21 4 39 6 55 12 47 23 -30 13 -83 32 -107 66 -85 11 8 26 32
34 55 13 40 14 40 32 22 11 -11 26 -17 35 -14 9 4 15 1 15 -7 0 -8 5 -43 10
-79 10 -68 27 -92 60 -83 29 8 41 46 56 178 4 39 13 66 25 77 10 10 21 34 25
53 9 50 16 37 20 -37 12 -224 25 -260 82 -235 15 7 22 20 24 41 0 17 2 36 3
41 2 6 3 24 4 40 l2 30 15 -27 c21 -40 62 -38 77 2 8 21 18 30 34 30 15 0 27
9 35 24 15 35 38 42 38 11 0 -26 24 -55 46 -55 8 0 14 -6 14 -14 0 -7 7 -19
15 -26 19 -15 65 -5 65 15 0 19 16 19 24 0 7 -18 50 -20 64 -2 5 6 12 23 14
37 3 21 6 18 18 -20 26 -80 90 -63 90 24 0 46 6 45 15 -4 9 -50 31 -80 60 -80
32 0 41 22 50 125 7 84 11 99 25 90 5 -3 16 5 24 17 l16 22 1 -24 c0 -14 2
-34 4 -45 2 -11 6 -54 9 -95 12 -150 17 -171 42 -182 46 -21 67 22 79 162 5
69 17 96 37 84 4 -3 8 -12 8 -19 0 -16 30 -35 54 -35 31 0 48 58 50 171 2 60
0 113 -4 119 -12 19 -49 -42 -44 -70 3 -14 0 -31 -5 -39 -8 -12 -12 -12 -26 2
-19 20 -61 22 -72 5 -4 -7 -17 -18 -28 -24 -20 -11 -22 -7 -43 90 -13 55 -30
108 -38 116 -9 10 -36 15 -74 16 -58 1 -60 1 -69 -30 -6 -17 -11 -52 -13 -78
-2 -48 -17 -68 -19 -25 -1 45 -10 72 -26 85 -38 28 -67 -5 -77 -88 -2 -25 -5
-47 -5 -49 -1 -2 -9 3 -18 11 -20 18 -52 16 -65 -4 -4 -7 -11 -29 -14 -49 -6
-35 -7 -35 -51 -34 -24 1 -48 6 -53 11 -4 5 -11 47 -15 94 -16 217 -17 217
-53 231 -36 14 -58 -13 -61 -77 -1 -27 -4 -58 -6 -69 -2 -11 -4 -40 -4 -65 -1
-43 -1 -44 -17 -22 -8 12 -26 22 -38 22 -21 0 -24 6 -31 58 -8 64 -27 92 -62
92 -16 0 -27 -8 -34 -27 -11 -28 -11 -28 -20 -5 -5 14 -17 22 -32 22 -32 0
-45 -17 -53 -66 -3 -21 -14 -48 -24 -59 -18 -20 -27 -42 -35 -86 -4 -19 -25
-43 -31 -36 -1 1 -5 35 -8 75 -4 40 -12 84 -18 97 -19 41 -78 28 -78 -18 0
-10 -4 -16 -8 -13 -5 3 -20 7 -35 10 -29 5 -57 -22 -57 -56 0 -9 -4 -19 -8
-22 -6 -4 -60 18 -100 40 -3 2 -8 27 -17 84 -1 8 -13 20 -26 27 -19 10 -27 9
-41 -4 -10 -9 -18 -24 -18 -34 0 -10 -5 -21 -10 -24 -6 -4 -10 -3 -9 2 1 4 1
22 0 39 -1 35 -36 58 -63 43 -15 -8 -32 -54 -33 -89 0 -11 -9 -14 -35 -12 -45
4 -74 -20 -87 -73 -9 -31 -11 -34 -12 -14 -1 14 -10 60 -21 102 -22 83 -25
164 -35 852 -7 537 -15 946 -20 1103 -4 114 -7 139 -22 149 -21 16 -25 16 -46
1 -24 -18 -27 -116 -42 -1233 -8 -646 -17 -1096 -24 -1184 -1 -7 -7 -11 -15
-8 -7 3 -19 0 -25 -6 -16 -16 -18 -9 -25 83 -16 230 -20 243 -57 255 -22 7
-55 -15 -56 -38 0 -23 -14 -132 -20 -154 -5 -24 -33 -32 -34 -10 0 16 -9 105
-14 137 -1 14 -3 35 -4 48 0 13 -12 34 -25 47 -26 26 -25 17 -41 323 -3 62
-21 88 -54 77 -32 -10 -42 -47 -46 -175 -2 -63 -7 -187 -10 -274 -3 -88 -7
-162 -10 -164 -3 -3 -6 10 -6 29 -2 40 -2 44 -13 86 -15 62 -70 65 -86 4 -5
-20 -12 -53 -15 -73 -6 -37 -7 -37 -25 -20 -22 21 -40 64 -40 97 0 15 -10 31
-25 41 -24 16 -26 15 -62 -15 -21 -18 -45 -37 -53 -44 -8 -6 -24 -10 -36 -9
-13 2 -26 -4 -32 -15 -9 -16 -11 -15 -17 10 -4 15 -16 32 -26 37 -10 6 -18 18
-17 28 1 23 -10 120 -18 157 -3 17 -16 40 -27 53 -12 13 -22 35 -23 50 -1 15
-5 92 -8 172 -19 407 -25 445 -73 445 -13 0 -18 9 -19 35 0 19 -4 134 -9 255
-4 121 -9 236 -10 255 -2 19 -4 56 -4 82 -1 50 -19 78 -52 78 -50 0 -57 -77
-75 -835 -3 -159 -7 -333 -9 -385 -1 -52 -3 -137 -4 -189 0 -52 -3 -92 -5 -90
-2 2 -7 49 -10 104 -16 253 -21 281 -52 302 -24 16 -52 0 -58 -32 -13 -68 -22
-190 -31 -430 -7 -184 -9 -195 -34 -188 -29 8 -47 -29 -50 -104 -1 -15 -7 -21
-21 -20 -24 2 -27 13 -35 122 -3 44 -8 96 -10 115 -13 119 -17 207 -30 655
-10 338 -15 418 -26 431 -15 18 -54 18 -72 0 -8 -9 -13 -29 -11 -50 1 -20 -2
-38 -7 -42 -5 -3 -9 16 -10 43 -1 82 -7 123 -19 138 -11 13 -39 13 -60 0 -6
-3 -10 0 -11 7 0 7 -2 76 -4 153 -2 77 -6 259 -10 404 -3 145 -10 272 -15 282
-6 10 -20 19 -32 21 -25 3 -23 -18 -28 338 -2 91 -7 173 -12 182 -16 31 -44
40 -67 20 -23 -19 -23 -42 -37 -1037 -3 -242 -7 -505 -9 -585 -2 -80 -4 -199
-4 -264 -1 -66 -4 -116 -7 -113 -4 3 -15 2 -25 -4 -17 -9 -19 -6 -19 26 0 61
-20 123 -41 128 -18 5 -19 17 -20 199 0 106 -2 436 -4 733 -2 297 -6 1017 -9
1600 -7 1137 -15 1732 -25 1832 -1 16 -32 31 -53 26z m525 -4168 c-7 -21 -12
-19 -10 4 0 11 5 18 9 15 4 -3 5 -11 1 -19z m-1723 -375 c0 -11 -2 -20 -4 -20
-2 0 -6 9 -9 20 -3 11 -1 20 4 20 5 0 9 -9 9 -20z"/>
</g>
</svg>
